<?xml version="1.0" encoding="UTF-8" standalone="no"?>
<!DOCTYPE svg PUBLIC "-//W3C//DTD SVG 1.1//EN" "http://www.w3.org/Graphics/SVG/1.1/DTD/svg11.dtd">
<svg width="100%" height="100%" viewBox="0 0 13 9" version="1.1" xmlns="http://www.w3.org/2000/svg" xmlns:xlink="http://www.w3.org/1999/xlink" xml:space="preserve" xmlns:serif="http://www.serif.com/" style="fill-rule:evenodd;clip-rule:evenodd;">
    <g transform="matrix(1,0,0,1,-1558.054137,-829.017631)">
        <g transform="matrix(1,0,0,1,1252.571048,248.947343)">
            <g id="g2016" transform="matrix(1,0,0,1,-3.216168,-0.405924)">
                <path id="path9914" d="M316.359,588.227C316.209,588.182 316.078,588.113 315.93,588.066C315.376,587.892 314.863,587.67 314.33,587.469C312.321,586.709 310.411,585.779 308.715,584.895L308.715,589.149C311.13,589.332 313.68,589.108 316.355,588.227L316.359,588.227Z" style="fill:url(#_Linear1);fill-rule:nonzero;stroke:rgb(115,89,57);stroke-width:0.01px;"/>
                <path id="path9915" d="M316.363,588.227L316.363,588.225C316.353,588.223 315.994,588.087 315.926,588.066C316.074,588.113 316.205,588.182 316.355,588.227L316.363,588.227Z" style="fill:url(#_Linear2);fill-rule:nonzero;stroke:rgb(115,89,57);stroke-width:0.01px;"/>
                <path id="path9916" d="M308.715,580.551L308.715,584.895C310.411,585.779 312.321,586.709 314.33,587.469C314.863,587.67 315.376,587.892 315.93,588.066C315.998,588.087 316.361,588.222 316.367,588.225L316.367,588.227C317.888,588.679 319.477,589.013 321.139,589.148L321.139,584.895C315.784,582.273 313.505,581.489 313.484,581.482C311.966,581.03 310.374,580.687 308.715,580.551L308.715,580.551Z" style="fill:url(#_Linear3);fill-rule:nonzero;stroke:rgb(115,89,57);stroke-width:0.01px;"/>
                <path id="path9918" d="M319.299,580.494C317.434,580.523 315.494,580.82 313.484,581.482C313.505,581.489 315.784,582.273 321.139,584.895L321.139,580.551C320.534,580.505 319.92,580.484 319.299,580.494L319.299,580.494Z" style="fill:url(#_Linear4);fill-rule:nonzero;stroke:rgb(115,89,57);stroke-width:0.01px;"/>
            </g>
        </g>
    </g>
    <defs>
        <linearGradient id="_Linear1" x1="0" y1="0" x2="1" y2="0" gradientUnits="userSpaceOnUse" gradientTransform="matrix(-2.0649,4.99481,-4.99481,-2.0649,304.47944,582.77548)"><stop offset="0" style="stop-color:rgb(97,75,46);stop-opacity:1"/><stop offset="0.5" style="stop-color:rgb(183,146,98);stop-opacity:1"/><stop offset="1" style="stop-color:rgb(97,75,46);stop-opacity:1"/></linearGradient>
        <linearGradient id="_Linear2" x1="0" y1="0" x2="1" y2="0" gradientUnits="userSpaceOnUse" gradientTransform="matrix(-2.0649,4.99481,-4.99481,-2.0649,317.02181,582.77548)"><stop offset="0" style="stop-color:rgb(97,75,46);stop-opacity:1"/><stop offset="0.5" style="stop-color:rgb(183,146,98);stop-opacity:1"/><stop offset="1" style="stop-color:rgb(97,75,46);stop-opacity:1"/></linearGradient>
        <linearGradient id="_Linear3" x1="0" y1="0" x2="1" y2="0" gradientUnits="userSpaceOnUse" gradientTransform="matrix(-2.0649,4.99481,-4.99481,-2.0649,317.02181,582.77548)"><stop offset="0" style="stop-color:rgb(97,75,46);stop-opacity:1"/><stop offset="0.5" style="stop-color:rgb(183,146,98);stop-opacity:1"/><stop offset="1" style="stop-color:rgb(97,75,46);stop-opacity:1"/></linearGradient>
        <linearGradient id="_Linear4" x1="0" y1="0" x2="1" y2="0" gradientUnits="userSpaceOnUse" gradientTransform="matrix(-2.0649,4.99481,-4.99481,-2.0649,329.56419,582.77548)"><stop offset="0" style="stop-color:rgb(97,75,46);stop-opacity:1"/><stop offset="0.5" style="stop-color:rgb(183,146,98);stop-opacity:1"/><stop offset="1" style="stop-color:rgb(97,75,46);stop-opacity:1"/></linearGradient>
    </defs>
</svg>
