<?xml version="1.0" encoding="UTF-8" standalone="no"?>
<!-- Created with Inkscape (http://www.inkscape.org/) -->

<svg
   width="99.999992mm"
   height="100mm"
   viewBox="0 0 99.999992 100"
   version="1.1"
   id="svg1"
   xml:space="preserve"
   xmlns:inkscape="http://www.inkscape.org/namespaces/inkscape"
   xmlns:sodipodi="http://sodipodi.sourceforge.net/DTD/sodipodi-0.dtd"
   xmlns="http://www.w3.org/2000/svg"
   xmlns:svg="http://www.w3.org/2000/svg"><sodipodi:namedview
     id="namedview1"
     pagecolor="#ffffff"
     bordercolor="#000000"
     borderopacity="0.25"
     inkscape:showpageshadow="2"
     inkscape:pageopacity="0.0"
     inkscape:pagecheckerboard="0"
     inkscape:deskcolor="#d1d1d1"
     inkscape:document-units="mm"><inkscape:page
       x="0"
       y="0"
       width="99.999992"
       height="100"
       id="page2"
       margin="0"
       bleed="0" /></sodipodi:namedview><defs
     id="defs1" /><g
     inkscape:label="Layer 1"
     inkscape:groupmode="layer"
     id="layer1"
     transform="translate(-28.341174,-34.941177)"><g
       id="g1"><rect
         style="fill:#008080;stroke:none;stroke-width:0.2;stroke-linecap:round;stroke-linejoin:round"
         id="rect1"
         width="100"
         height="100"
         x="28.341175"
         y="34.941177"
         ry="50"
         rx="50" /><path
         d="M 82.059636,111.32383 81.958478,111.42506 67.74274,97.310511 q -1.9224,-1.922408 -3.794243,-3.794257 -1.871803,-1.972962 -3.541283,-4.148362 -1.163562,-1.467101 -2.225951,-3.035391 -1.062374,-1.669433 -2.428302,-3.03537 l -7.284934,-7.28493 Q 50.03627,74.3427 51.55397,72.825 q 1.568288,-1.56826 3.18716,-3.187146 2.225943,-2.225957 4.451937,-4.350679 2.175364,-2.17535 4.401315,-4.401315 1.770645,-1.770645 3.64242,-3.237786 1.922362,-1.517755 3.693049,-3.18717 l 8.600272,8.600271 q -1.821274,1.720016 -3.743664,3.237728 -1.871783,1.467134 -3.64242,3.237786 -1.618872,1.618885 -3.237715,3.338972 -1.618829,1.720087 -3.338965,3.237708 0.809439,1.011799 1.618878,2.124785 0.758832,1.062364 1.568271,2.074163 2.58012,-2.984768 5.058981,-5.969593 2.478905,-2.984797 5.160155,-5.868421 l 9.00499,8.195552 q -2.883546,3.086047 -5.51428,6.323733 -2.681271,3.187122 -5.463701,6.374314 l 9.00497,9.004941 q 3.237842,-3.541191 6.677803,-6.779061 3.389559,-3.288301 6.829711,-6.627182 l 8.600273,8.600256 q -2.73185,2.731886 -5.41316,5.3119 -2.6813,2.580044 -5.41315,5.311894 -2.580091,2.58008 -5.008479,5.31184 -2.377766,2.78239 -4.957846,5.36247 -0.252988,0.2528 -0.607113,0.50585 -0.252996,0.2528 -0.505906,0.50589 z"
         id="text2"
         style="font-size:23.9804px;font-family:Achiko;-inkscape-font-specification:'Achiko, Normal';fill:#f9f9f9;stroke-width:0.999999"
         aria-label="E" /></g></g></svg>
